<?xml version="1.0" encoding="UTF-8" standalone="no"?>
<svg
   height="512pt"
   viewBox="0 0 512 512"
   width="512pt"
   id="svg2"
   version="1.1"
   inkscape:version="1.2.2 (b0a8486541, 2022-12-01)"
   sodipodi:docname="line_chart.svg"
   xmlns:inkscape="http://www.inkscape.org/namespaces/inkscape"
   xmlns:sodipodi="http://sodipodi.sourceforge.net/DTD/sodipodi-0.dtd"
   xmlns="http://www.w3.org/2000/svg"
   xmlns:svg="http://www.w3.org/2000/svg"
   xmlns:rdf="http://www.w3.org/1999/02/22-rdf-syntax-ns#"
   xmlns:cc="http://creativecommons.org/ns#"
   xmlns:dc="http://purl.org/dc/elements/1.1/">
  <metadata
     id="metadata12">
    <rdf:RDF>
      <cc:Work
         rdf:about="">
        <dc:format>image/svg+xml</dc:format>
        <dc:type
           rdf:resource="http://purl.org/dc/dcmitype/StillImage" />
      </cc:Work>
    </rdf:RDF>
  </metadata>
  <defs
     id="defs10" />
  <sodipodi:namedview
     pagecolor="#ffffff"
     bordercolor="#666666"
     borderopacity="1"
     objecttolerance="10"
     gridtolerance="10"
     guidetolerance="10"
     inkscape:pageopacity="0"
     inkscape:pageshadow="2"
     inkscape:window-width="3440"
     inkscape:window-height="1371"
     id="namedview8"
     showgrid="false"
     inkscape:zoom="1.4142136"
     inkscape:cx="391.03005"
     inkscape:cy="362.03867"
     inkscape:window-x="0"
     inkscape:window-y="0"
     inkscape:window-maximized="1"
     inkscape:current-layer="svg2"
     inkscape:pagecheckerboard="true"
     inkscape:showpageshadow="2"
     inkscape:deskcolor="#d1d1d1"
     inkscape:document-units="pt" />
  <path
     d="m 62.115254,369.73559 c 13.035046,0 24.833069,-5.06615 33.55115,-13.20132 l 47.827426,23.16244 c -0.23983,1.88706 -0.59326,3.74153 -0.59326,5.68973 0,25.88911 21.74471,46.95254 48.47118,46.95254 26.72648,0 48.47119,-21.06343 48.47119,-46.95254 0,-7.22629 -1.83451,-13.99202 -4.85974,-20.11378 l 64.88069,-62.84794 c 6.31977,2.93046 13.30434,4.70748 20.76436,4.70748 26.72647,0 48.47119,-21.06343 48.47119,-46.95254 0,-4.87458 -0.98878,-9.48425 -2.41936,-13.90643 l 56.373,-40.9449 c 7.69144,4.97648 16.91022,7.89879 26.83167,7.89879 26.72647,0 48.47118,-21.06344 48.47118,-46.95255 0,-25.88911 -21.74471,-46.95254 -48.47118,-46.95254 -26.72648,0 -48.47119,21.06343 -48.47119,46.95254 0,4.8746 0.98878,9.48426 2.41935,13.90644 l -56.373,40.9449 c -7.69143,-4.97649 -16.91021,-7.89879 -26.83166,-7.89879 -26.72647,0 -48.47119,21.06343 -48.47119,46.95254 0,7.22629 1.8345,13.99202 4.85975,20.11379 l -64.88071,62.84793 c -6.31977,-2.93046 -13.30433,-4.70748 -20.76435,-4.70748 -13.03504,0 -24.83307,5.06614 -33.55115,13.20133 l -47.82742,-23.16244 c 0.23982,-1.88708 0.59326,-3.74154 0.59326,-5.68974 0,-25.88911 -21.744712,-46.95254 -48.471186,-46.95254 -26.726473,0 -48.471186,21.06343 -48.471186,46.95254 0,25.88911 21.744713,46.95254 48.471186,46.95254 z m 0,0"
     id="path4"
     inkscape:connector-curvature="0"
     style="fill:none;stroke:#000000;stroke-opacity:1;stroke-dasharray:2,1;stroke-dashoffset:0" />
  <rect
     style="fill:#000000;fill-opacity:1;stroke:none;stroke-width:3.24581;stroke-linecap:round;stroke-linejoin:round;stroke-dasharray:2.9936, 1.4968;stroke-dashoffset:0;stroke-opacity:1"
     id="rect6313"
     width="194.75723"
     height="31.785578"
     x="153.54771"
     y="246.19986"
     transform="matrix(0.89756793,0.44087619,-0.42942718,0.90310149,0,0)" />
  <rect
     style="fill:#000000;fill-opacity:1;stroke:none;stroke-width:3.24581;stroke-linecap:round;stroke-linejoin:round;stroke-dasharray:2.9936, 1.4968;stroke-dashoffset:0;stroke-opacity:1"
     id="rect6313-6"
     width="211.71745"
     height="33.904839"
     x="-59.516769"
     y="-428.81152"
     transform="matrix(-0.71180047,0.70238173,-0.71137611,-0.70281152,0,0)" />
  <rect
     style="fill:#000000;fill-opacity:1;stroke:none;stroke-width:3.24581;stroke-linecap:round;stroke-linejoin:round;stroke-dasharray:2.9936, 1.4968;stroke-dashoffset:0;stroke-opacity:1"
     id="rect6313-6-7"
     width="185.33632"
     height="33.959652"
     x="-305.96088"
     y="-413.91895"
     transform="matrix(-0.81281449,0.58252262,-0.59281117,-0.80534149,0,0)" />
</svg>
